<?xml version="1.0" encoding="UTF-8" standalone="no"?>
<!-- Created with Inkscape (http://www.inkscape.org/) -->

<svg
   xmlns:dc="http://purl.org/dc/elements/1.1/"
   xmlns:cc="http://creativecommons.org/ns#"
   xmlns:rdf="http://www.w3.org/1999/02/22-rdf-syntax-ns#"
   xmlns:svg="http://www.w3.org/2000/svg"
   xmlns="http://www.w3.org/2000/svg"
   xmlns:sodipodi="http://sodipodi.sourceforge.net/DTD/sodipodi-0.dtd"
   xmlns:inkscape="http://www.inkscape.org/namespaces/inkscape"
   width="80.167931mm"
   height="64.855507mm"
   viewBox="0 0 284.0596 229.80297"
   id="svg2"
   version="1.1"
   inkscape:version="0.91 r13725"
   sodipodi:docname="bobcat.svg">
  <defs
     id="defs4" />
  <sodipodi:namedview
     id="base"
     pagecolor="#ffffff"
     bordercolor="#666666"
     borderopacity="1.0"
     inkscape:pageopacity="0.0"
     inkscape:pageshadow="2"
     inkscape:zoom="0.70710678"
     inkscape:cx="311.03894"
     inkscape:cy="145.9627"
     inkscape:document-units="px"
     inkscape:current-layer="layer1"
     showgrid="false"
     inkscape:window-width="830"
     inkscape:window-height="852"
     inkscape:window-x="417"
     inkscape:window-y="0"
     inkscape:window-maximized="0"
     fit-margin-top="20"
     fit-margin-left="0"
     fit-margin-right="0"
     fit-margin-bottom="0" />
  <metadata
     id="metadata7">
    <rdf:RDF>
      <cc:Work
         rdf:about="">
        <dc:format>image/svg+xml</dc:format>
        <dc:type
           rdf:resource="http://purl.org/dc/dcmitype/StillImage" />
        <dc:title></dc:title>
      </cc:Work>
    </rdf:RDF>
  </metadata>
  <g
     inkscape:label="Layer 1"
     inkscape:groupmode="layer"
     id="layer1"
     style="display:inline"
     transform="translate(-404.27544,-812.20422)">
    <path
       id="path4326"
       style="fill:#000000"
       d="m 418.71755,1041.3484 -14,-0.5432 -0.3225,-3.3726 c -0.36654,-3.8331 -1.58446,-2.554 27.10532,-28.4682 9.23054,-8.3375 17.81796,-15.55714 19.08315,-16.04354 1.26518,-0.48641 5.18792,-0.57027 8.71718,-0.18637 l 6.41685,0.698 4.87917,6.43636 c 2.68354,3.54005 5.46571,6.43635 6.18261,6.43635 1.42979,0 1.48816,-0.1615 3.97551,-10.99998 1.77252,-7.72368 13.71551,-37.65403 15.79492,-39.58368 0.64229,-0.59603 4.76779,-2.58337 9.16779,-4.41632 4.4,-1.83295 8.55111,-3.82498 9.2247,-4.42673 0.67358,-0.60175 3.38471,-8.28941 6.02473,-17.08368 l 4.80004,-15.98959 4.19291,-1.01764 c 2.3061,-0.55971 4.59997,-1.45971 5.0975,-2 1.40818,-1.52925 4.35428,-14.9082 3.98821,-18.11145 -0.25906,-2.26687 -1.32683,-3.39691 -5.07494,-5.37091 -2.61076,-1.375 -4.595,-2.95 -4.40941,-3.5 0.21976,-0.65128 13.38205,-0.87712 37.74447,-0.64763 37.36266,0.35195 41.28911,0.71306 43.31011,3.98312 0.28884,0.46733 1.9109,5.98303 3.60459,12.25711 1.72191,6.37861 3.80679,11.95844 4.72939,12.6574 1.04817,0.79409 5.31871,1.27766 11.70883,1.32584 5.53238,0.0417 15.40469,0.40214 21.93848,0.80095 10.80197,0.65933 12.05192,0.93791 13.77921,3.07102 l 1.89961,2.34592 2.51573,-2.3634 c 5.51629,-5.18228 8.53597,2.79328 3.99277,10.54567 -3.54747,6.05331 -3.33515,8.82638 0.9365,12.23137 1.92689,1.53595 3.94399,4.14263 4.48245,5.79263 1.98917,6.09535 8.01084,44.72373 8.12172,52.0999 0.19115,12.71618 -2.17206,14.29578 -26.1076,17.45108 -22.1488,2.9197 -25.67514,2.4546 -19.38942,-2.5575 l 2.61059,-2.0816 -1.64542,-6.4227 c -2.45657,-9.58888 -7.79655,-17.11713 -18.18053,-25.63065 l -4.70627,-3.85853 -28.59447,-0.63898 c -15.72697,-0.35144 -38.89813,-0.68894 -51.49149,-0.75 l -22.89701,-0.11102 -4.10299,3.30836 c -6.81863,5.49806 -11.60299,8.11638 -11.60299,6.34992 0,-2.55205 4.81094,-7.38679 9.77334,-9.82169 4.15774,-2.04008 6.68244,-2.38636 20.97566,-2.87691 9.54168,-0.32747 16.69481,-1.00349 17.32902,-1.6377 0.59402,-0.59402 2.14218,-5.97197 3.44037,-11.951 1.82029,-8.38371 2.08821,-11.13434 1.17097,-12.02202 -0.90089,-0.87186 -7.40542,0.48552 -26.81805,5.59646 -14.09578,3.71113 -26.3467,7.02303 -27.22426,7.35978 -1.96768,0.75507 -12.95056,23.65458 -15.92041,33.19436 -1.67279,5.37337 -2.18482,9.55712 -2.20298,18.00042 -0.013,6.05 0.32241,12.2375 0.74539,13.75 0.94681,3.3857 3.99972,3.6646 5.47237,0.5 0.99883,-2.1464 1.08304,-2.1611 1.82838,-0.3213 1.05885,2.6138 -4.82892,7.6909 -10.75786,9.2767 -3.49628,0.9351 -4.69952,1.8534 -5.85618,4.4697 -1.09796,2.4835 -2.4389,3.5851 -5.45576,4.482 -4.15534,1.2354 -24.13343,1.3897 -50,0.3861 z m 248,-31.9544 4,-0.6727 -0.14869,-7.958 c -0.0818,-4.37696 -1.33048,-21.23308 -2.77489,-37.45808 -3.72291,-41.81945 -3.74157,-41.98016 -4.96789,-42.77841 -2.09825,-1.36584 -21.73544,-2.85605 -23.10092,-1.75307 -0.90424,0.7304 -1.46891,6.35301 -1.93455,19.26296 -0.72726,20.16362 -1.84342,25.53274 -6.5168,31.34814 -1.68094,2.09171 -3.05626,4.12877 -3.05626,4.52681 0,0.39804 2.62097,3.46193 5.82438,6.80864 7.29851,7.62499 10.66202,13.34976 12.69644,21.60961 0.87719,3.5614 1.7935,7.0737 2.03623,7.805 0.442,1.3317 7.30355,1.0484 17.94295,-0.7409 z m 14.00479,-8.5027 c 1.32763,-1.32759 2.71983,-3.63285 3.09377,-5.12276 0.63949,-2.54791 -4.62627,-39.35809 -6.70957,-46.90319 -1.04954,-3.80113 -3.52675,-6.34413 -4.83923,-4.96775 -0.8342,0.87482 1.43701,55.57048 2.41496,58.1576 0.74719,1.9767 3.41327,1.4629 6.04007,-1.1639 z m -99.33062,-53.63771 c 32.77614,-9.75847 49.17087,-15.02173 51.57583,-16.55758 2.2539,-1.43938 3.10751,-5.74279 1.35408,-6.82646 -1.11441,-0.68875 -73.05865,16.99024 -74.33484,18.26643 -1.25132,1.25132 -2.95324,9.0625 -2.22965,10.23329 0.94174,1.52378 2.38003,1.21246 23.63458,-5.11568 z m 31.52512,4.18752 c 6.70961,-0.38562 12.54924,-1.05109 12.97697,-1.47882 1.2842,-1.2842 -3.95172,-10.1264 -6.17626,-10.43022 -2.42317,-0.33093 -38.37355,10.2467 -39.85264,11.72579 -1.21422,1.21422 13.67702,1.29678 33.05193,0.18325 z m -84.84851,-6.23372 c 1.73207,-0.6038 3.14922,-1.192 3.14922,-1.30711 0,-0.1151 0.9,-5.10788 2,-11.09506 2.70562,-14.72641 2.65566,-16.5 -0.46482,-16.5 -1.35565,0 -2.87599,0.7875 -3.37855,1.75 -1.82778,3.50059 -7.363,25.26983 -6.79901,26.73957 0.69141,1.80177 1.3634,1.85225 5.49316,0.4126 z m 42.30658,-9.92652 c 36.97021,-8.7033 44.84264,-10.99227 44.84264,-13.03835 0,-2.17896 -12.21642,-27.47077 -14.03264,-29.05197 -2.70257,-2.35284 -46.12219,-2.58764 -48.44784,-0.26199 -0.83574,0.83573 -1.51952,1.87024 -1.51952,2.29889 0,0.42866 -1.57342,9.95902 -3.49648,21.17857 -1.92307,11.21956 -3.49807,21.1867 -3.5,22.1492 -0.005,2.61003 2.47913,2.299 26.15384,-3.27435 z m 27.437,104.43883 c -7.37398,-2.3536 -15.91474,-11.2688 -18.14493,-18.9404 -5.64828,-19.4295 8.02918,-37.91852 28.05057,-37.91852 11.76458,0 20.8719,5.69713 26.73186,16.72224 1.81905,3.42238 2.24376,5.83228 2.24211,12.72218 -0.002,7.2588 -0.38795,9.2302 -2.64475,13.5 -3.15391,5.9672 -6.74908,9.4836 -12.82922,12.5481 -5.82068,2.9338 -16.5355,3.5593 -23.40564,1.3664 z m 19.67287,-8.0147 c 7.84006,-3.9621 12.06707,-10.8283 11.99315,-19.4812 -0.19786,-23.1611 -30.74344,-30.33248 -41.35196,-9.7084 -2.41023,4.6857 -2.52668,13.6847 -0.23945,18.5047 5.24053,11.0436 19.0349,16.0233 29.59826,10.6849 z m -13.93849,-10.8575 c -3.90133,-1.6971 -5.32874,-4.2117 -5.32874,-9.3876 0,-7.9607 9.50259,-11.96844 15.8046,-6.6656 5.60257,4.7142 4.41017,13.2698 -2.23649,16.0469 -4.19366,1.7522 -4.22552,1.7523 -8.23937,0.01 z m -91.71352,16.8789 c -6.81717,-2.1775 -14.71299,-10.1887 -17.08725,-17.337 -3.8246,-11.5148 -0.0301,-25.26117 9.02023,-32.67719 6.09394,-4.99352 10.92386,-6.69222 19.101,-6.71789 16.48681,-0.0517 28.3508,11.79555 28.3508,28.31088 0,16.149 -12.0256,28.6498 -28.49964,29.6259 -3.64313,0.2159 -7.91934,-0.2574 -10.88514,-1.2047 z m 20.36131,-8.4191 c 4.62158,-2.3707 7.44145,-5.4921 9.93944,-11.0021 4.90149,-10.8115 0.58972,-22.58112 -10.32925,-28.19518 -5.95608,-3.06237 -16.03281,-2.2617 -21.79362,1.73164 -5.05902,3.50687 -9.7931,11.96344 -9.7931,17.49364 0,16.6968 17.29876,27.5013 31.97653,19.972 z m -12.6924,-9.7773 c -2.93993,-0.4709 -7.28413,-5.7497 -7.28413,-8.8512 0,-3.2615 2.53678,-8.0553 4.94461,-9.3439 2.80361,-1.50048 8.28252,-1.2593 10.75636,0.4734 3.38415,2.3704 4.6958,7.6116 2.95031,11.7891 -0.79596,1.905 -1.95778,3.7792 -2.58182,4.1649 -1.9863,1.2276 -6.49424,2.1346 -8.78533,1.7677 z m 34.41755,-0.192 c 0.92208,-3.526 2.79015,-4.1237 11.94943,-3.8232 8.82835,0.2898 8.84962,0.2968 9.16531,3.0404 l 0.31642,2.75 -10.9728,0 c -10.41956,0 -10.94686,-0.099 -10.45836,-1.9672 z"
       inkscape:connector-curvature="0" />
  </g>
  <g
     inkscape:groupmode="layer"
     id="layer2"
     inkscape:label="Layer 2"
     style="display:inline"
     transform="translate(-404.27544,-812.20422)" />
</svg>
