<?xml version="1.0" encoding="UTF-8" standalone="no"?>
<!-- Created with Inkscape (http://www.inkscape.org/) -->

<svg
   xmlns:dc="http://purl.org/dc/elements/1.1/"
   xmlns:cc="http://creativecommons.org/ns#"
   xmlns:rdf="http://www.w3.org/1999/02/22-rdf-syntax-ns#"
   xmlns:svg="http://www.w3.org/2000/svg"
   xmlns="http://www.w3.org/2000/svg"
   xmlns:sodipodi="http://sodipodi.sourceforge.net/DTD/sodipodi-0.dtd"
   xmlns:inkscape="http://www.inkscape.org/namespaces/inkscape"
   id="svg2"
   height="20.59536mm"
   width="23.88467mm"
   version="1.1"
   viewBox="0 0 84.630723 72.975684"
   inkscape:version="0.91 r13725"
   sodipodi:docname="tipper.svg">
  <defs
     id="defs3343" />
  <sodipodi:namedview
     pagecolor="#ffffff"
     bordercolor="#666666"
     borderopacity="1"
     objecttolerance="10"
     gridtolerance="10"
     guidetolerance="10"
     inkscape:pageopacity="0"
     inkscape:pageshadow="2"
     inkscape:window-width="1170"
     inkscape:window-height="839"
     id="namedview3341"
     showgrid="false"
     inkscape:zoom="5.6568542"
     inkscape:cx="21.858776"
     inkscape:cy="20.739238"
     inkscape:window-x="0"
     inkscape:window-y="0"
     inkscape:window-maximized="0"
     inkscape:current-layer="svg2"
     fit-margin-top="0"
     fit-margin-left="0"
     fit-margin-right="0"
     fit-margin-bottom="0" />
  <metadata
     id="metadata7">
    <rdf:RDF>
      <cc:Work
         rdf:about="">
        <dc:format>image/svg+xml</dc:format>
        <dc:type
           rdf:resource="http://purl.org/dc/dcmitype/StillImage" />
        <dc:title />
      </cc:Work>
    </rdf:RDF>
  </metadata>
  <path
     d="M 40.613281 0 L 39.761719 0.625 C 39.294419 0.9704 36.124044 3.4973344 32.714844 6.2402344 L 26.515625 11.228516 L 27.84375 16.359375 C 28.57413 19.181275 29.171875 21.666594 29.171875 21.882812 C 29.171875 22.099013 25.696066 25.055925 21.447266 28.453125 C 17.198466 31.850325 12.776094 35.387193 11.621094 36.314453 L 5.7792969 41.005859 C 3.7206969 42.658559 1.8364469 44.087741 1.5917969 44.181641 C 1.3471169 44.275541 0.84739187 44.698234 0.48242188 45.121094 C -0.09646814 45.791814 -0.12577625 45.950111 0.24609375 46.363281 C 0.58597375 46.740881 0.671875 48.118197 0.671875 53.154297 C 0.671875 59.155657 0.70037535 59.478287 1.2539062 59.623047 C 1.5743463 59.706847 1.9119063 59.699422 2.0039062 59.607422 C 2.0959763 59.515322 2.171875 56.896566 2.171875 53.789062 C 2.171875 50.681562 2.2423751 48.140625 2.3300781 48.140625 C 2.4643781 48.140625 8.7407844 53.225884 9.8964844 54.271484 C 9.9041844 54.277484 9.9041862 54.287922 9.9101562 54.294922 L 13.429688 57.228516 C 13.575518 57.308116 13.738143 57.428443 13.876953 57.595703 C 13.887853 57.608903 13.89575 57.6127 13.90625 57.625 L 14.183594 57.855469 C 14.360084 57.936069 14.546575 57.862473 14.953125 57.595703 C 15.901225 56.974463 15.970703 57.005163 15.970703 58.039062 C 15.970703 58.739064 15.837764 58.9375 15.371094 58.9375 C 14.872864 58.9375 14.771484 59.138057 14.771484 60.117188 C 14.771484 61.101487 14.883806 61.317251 15.447266 61.425781 L 16.121094 61.556641 L 15.447266 61.597656 C 14.810886 61.636156 14.771484 61.767472 14.771484 63.888672 C 14.771484 66.045772 14.799604 66.138672 15.470703 66.138672 C 16.423033 66.138672 16.558154 66.340274 16.271484 67.339844 C 16.092074 67.965454 16.137363 68.239549 16.439453 68.355469 C 16.931523 68.544369 17.035897 68.395774 17.310547 67.115234 C 17.451827 66.456524 17.694071 66.140625 18.056641 66.140625 C 18.457491 66.140625 18.633479 65.832262 18.755859 64.919922 C 19.127459 62.149522 21.727584 59.910893 24.896484 59.632812 C 26.410784 59.499944 26.836053 59.594016 28.376953 60.410156 C 29.342453 60.921556 30.422844 61.3559 30.777344 61.375 C 31.256334 61.4009 31.290644 61.443599 30.914062 61.542969 C 30.459522 61.662869 30.484265 61.818334 31.140625 63.052734 C 31.543075 63.809634 31.871094 64.814736 31.871094 65.285156 C 31.871094 65.940476 32.011003 66.140625 32.470703 66.140625 C 32.890973 66.140625 33.073125 65.937644 33.078125 65.464844 C 33.089425 64.302044 34.129397 62.434556 35.404297 61.285156 C 37.737997 59.181106 41.023687 58.982409 43.617188 60.787109 C 44.083286 61.111449 45.016298 61.361878 45.867188 61.392578 L 47.322266 61.445312 L 46.076172 61.558594 L 44.832031 61.671875 L 45.521484 62.931641 C 45.901214 63.624241 46.304106 64.629766 46.416016 65.166016 C 46.557296 65.842986 46.788931 66.140625 47.175781 66.140625 C 47.585081 66.140625 47.759025 66.398974 47.828125 67.115234 L 47.921875 68.089844 L 55.496094 68.169922 C 63.028994 68.249622 63.072266 68.246928 63.072266 67.617188 C 63.072266 67.236266 63.310935 66.922525 63.671875 66.828125 C 64.113545 66.712615 64.271484 66.418664 64.271484 65.714844 C 64.271484 64.265044 65.625141 61.823359 66.931641 60.917969 C 69.097041 59.417369 71.356566 59.161516 73.572266 60.166016 C 76.295966 61.400816 77.570125 63.3767 77.578125 66.375 L 77.585938 68.257812 L 81.054688 68.173828 L 84.523438 68.089844 L 84.605469 62.759766 C 84.675369 58.210196 84.620369 57.401573 84.230469 57.251953 C 83.848639 57.106553 83.773438 56.313741 83.773438 52.431641 L 83.773438 47.789062 L 81.060547 41.439453 C 79.410347 37.577753 78.057405 34.831477 77.609375 34.429688 C 77.204215 34.066358 76.873047 33.625349 76.873047 33.449219 C 76.873047 33.229589 74.823056 33.153484 70.347656 33.208984 L 63.824219 33.289062 L 63.761719 44.392578 C 63.728219 50.497978 63.6955 55.736666 63.6875 56.035156 C 63.6795 56.334406 63.532505 56.489812 63.359375 56.382812 C 63.156145 56.257213 63.06217 54.227906 63.09375 50.628906 C 63.14815 44.445066 63.182447 44.550781 61.123047 44.550781 C 59.002047 44.550781 59.034278 44.458576 58.929688 50.898438 C 58.839188 56.472507 58.732117 57.119719 57.898438 57.136719 C 57.774687 57.138719 57.673828 56.669297 57.673828 56.091797 C 57.673828 55.202887 57.569477 55.041006 56.998047 55.041016 C 56.586247 55.041016 55.997488 55.451157 55.486328 56.091797 C 54.713028 57.060997 54.521819 57.142578 53.011719 57.142578 L 51.375 57.142578 L 48.769531 53.230469 C 47.234331 50.925969 46.012392 49.377534 45.794922 49.460938 C 45.580522 49.543236 44.643894 48.415431 43.558594 46.769531 C 42.205344 44.717271 41.592494 44.017872 41.333984 44.232422 C 41.076184 44.446322 40.505797 43.843747 39.279297 42.060547 L 37.582031 39.591797 L 38.578125 38.691406 C 39.126825 38.196406 40.688279 36.915803 42.046875 35.845703 C 43.405475 34.775603 44.642775 33.74817 44.796875 33.5625 C 44.982375 33.3395 43.202484 29.400991 39.525391 21.900391 C 36.471791 15.671091 33.980281 10.488164 33.988281 10.382812 C 33.996281 10.277515 36.021081 8.5926719 38.488281 6.6386719 L 42.974609 3.0859375 L 42.382812 2.2890625 C 42.057142 1.8505625 41.524802 1.1564937 41.201172 0.74609375 L 40.613281 0 z M 32.046875 23.796875 L 40.203125 34.099609 L 35.337891 37.820312 L 25.892578 29.521484 L 32.046875 23.796875 z M 20.837891 32.8125 L 30.283203 41.113281 L 24.128906 46.835938 L 15.972656 36.533203 L 20.837891 32.8125 z M 70.271484 36.142578 L 73.271484 36.142578 L 76.271484 36.142578 L 76.271484 41.841797 L 76.271484 47.541016 L 73.271484 47.541016 L 70.271484 47.541016 L 70.271484 41.841797 L 70.271484 36.142578 z M 77.691406 37.341797 C 77.786606 37.589297 78.788669 39.869956 79.917969 42.410156 C 81.047189 44.950356 81.970703 47.144076 81.970703 47.285156 C 81.970703 47.426226 80.958203 47.541016 79.720703 47.541016 L 77.470703 47.541016 L 77.496094 42.216797 C 77.509094 39.287997 77.596206 37.094297 77.691406 37.341797 z M 11.582031 40.396484 L 19.740234 50.701172 L 14.873047 54.421875 L 5.4296875 46.121094 L 11.582031 40.396484 z M 36.023438 40.666016 L 37.699219 43.115234 C 39.071599 45.121134 39.294641 45.611939 38.925781 45.818359 C 38.557481 46.024459 38.807675 46.564497 40.296875 48.779297 C 41.342605 50.334597 42.046619 51.675837 41.949219 51.929688 C 41.850919 52.185907 42.6603 53.685594 43.875 55.496094 C 45.02804 57.214694 45.970703 58.69325 45.970703 58.78125 C 45.970703 58.86925 40.504766 58.941406 33.822266 58.941406 L 21.671875 58.941406 L 21.671875 55.560547 L 21.671875 52.181641 L 28.847656 46.423828 L 36.023438 40.666016 z M 69.625 50.458984 L 81.3125 50.521484 L 81.625 62.771484 C 78.98107 58.472454 75.678519 55.268476 69.636719 55.128906 L 69.625 50.458984 z M 71.626953 58.054688 C 72.411453 58.091088 73.727242 58.387008 74.607422 58.804688 C 76.951822 59.917307 78.812132 62.479444 79.169922 65.089844 L 79.355469 66.441406 L 80.964844 66.441406 L 82.574219 66.441406 L 82.574219 65.091797 C 82.574219 64.349307 82.708047 63.742208 82.873047 63.742188 C 83.038047 63.742188 83.173828 64.485078 83.173828 65.392578 L 83.173828 67.041016 L 80.923828 67.041016 L 78.673828 67.041016 L 78.673828 66.044922 C 78.673828 64.591322 77.885834 62.515544 76.865234 61.277344 C 75.856834 60.053944 73.268503 58.642578 72.033203 58.642578 C 71.580353 58.642578 71.113054 58.486115 70.996094 58.296875 C 70.876614 58.103585 71.156273 58.032897 71.626953 58.054688 z M 64.955078 64.003906 C 64.932678 64.063306 64.896753 64.119808 64.876953 64.179688 C 64.863753 64.219588 64.859856 64.262484 64.847656 64.302734 A 6.4316654 6.5834484 0 0 1 64.955078 64.003906 z M 46.130859 65.498047 C 46.169259 65.762587 46.180941 66.025539 46.181641 66.287109 A 6.4316654 6.5834484 0 0 0 46.183594 66.265625 A 6.4316654 6.5834484 0 0 0 46.130859 65.498047 z "
     id="path3401" />
  <path
     inkscape:connector-curvature="0"
     d="m 70.312101,68.726 c -0.64224,-0.10286 -1.59125,-1.25605 -1.59125,-1.9336 0,-0.71248 0.55417,-1.75972 1.08017,-2.04123 0.61247,-0.32779 1.80936,-0.2751 2.34971,0.10342 0.7393,0.51783 1.02583,1.66281 0.64452,2.57538 -0.17389,0.41616 -0.4277,0.8256 -0.56401,0.90985 -0.43393,0.26817 -1.41871,0.46631 -1.91921,0.38617 z m 2.77265,2.13591 c 1.00961,-0.51789 1.62561,-1.19977 2.17131,-2.40345 1.07076,-2.36195 0.12883,-4.93296 -2.25642,-6.15937 -1.30115,-0.669 -3.50252,-0.49408 -4.76104,0.37829 -1.10517,0.7661 -2.13936,2.6136 -2.13936,3.82166 0,3.64755 3.77907,6.00776 6.98557,4.363 z m -4.44799,1.8392 c -1.48925,-0.47568 -3.21414,-2.22585 -3.73276,-3.78736 -0.8355,-2.51553 -0.007,-5.51842 1.97052,-7.13848 1.33125,-1.09087 2.38641,-1.46196 4.17272,-1.46757 3.60168,-0.0113 6.19345,2.5769 6.19345,6.1847 0,3.52785 -2.62716,6.25876 -6.22599,6.47198 -0.79586,0.0472 -1.73002,-0.0563 -2.37789,-0.26318 z"
     id="path3604" />
  <path
     id="path4449"
     d="m 39.258877,68.726 c -0.64224,-0.10286 -1.59125,-1.25605 -1.59125,-1.9336 0,-0.71248 0.55417,-1.75972 1.08017,-2.04123 0.61247,-0.32779 1.80936,-0.2751 2.349714,0.10342 0.7393,0.51783 1.02583,1.66281 0.64452,2.57538 -0.17389,0.41616 -0.4277,0.8256 -0.56401,0.90985 -0.433934,0.26817 -1.418714,0.46631 -1.919214,0.38617 z m 2.772654,2.13591 c 1.00961,-0.51789 1.62561,-1.19977 2.17131,-2.40345 1.07076,-2.36195 0.12883,-4.93296 -2.25642,-6.15937 -1.301154,-0.669 -3.502524,-0.49408 -4.761044,0.37829 -1.10517,0.7661 -2.13936,2.6136 -2.13936,3.82166 0,3.64755 3.77907,6.00776 6.985574,4.363 z m -4.447994,1.8392 c -1.48925,-0.47568 -3.21414,-2.22585 -3.73276,-3.78736 -0.8355,-2.51553 -0.007,-5.51842 1.97052,-7.13848 1.33125,-1.09087 2.38641,-1.46196 4.17272,-1.46757 3.601684,-0.0113 6.193454,2.5769 6.193454,6.1847 0,3.52785 -2.62716,6.25876 -6.225994,6.47198 -0.79586,0.0472 -1.73002,-0.0563 -2.37789,-0.26318 z"
     inkscape:connector-curvature="0" />
  <path
     inkscape:connector-curvature="0"
     d="m 24.733991,68.726 c -0.64224,-0.10286 -1.59125,-1.25605 -1.59125,-1.9336 0,-0.71248 0.55417,-1.75972 1.08017,-2.04123 0.61247,-0.32779 1.80936,-0.2751 2.34971,0.10342 0.7393,0.51783 1.02583,1.66281 0.64452,2.57538 -0.17389,0.41616 -0.4277,0.8256 -0.56401,0.90985 -0.43393,0.26817 -1.41871,0.46631 -1.91921,0.38617 z m 2.77265,2.13591 c 1.00961,-0.51789 1.62561,-1.19977 2.17131,-2.40345 1.07076,-2.36195 0.12883,-4.93296 -2.25642,-6.15937 -1.30115,-0.669 -3.50252,-0.49408 -4.76104,0.37829 -1.10517,0.7661 -2.13936,2.6136 -2.13936,3.82166 0,3.64755 3.77907,6.00776 6.98557,4.363 z m -4.44799,1.8392 c -1.48925,-0.47568 -3.214143,-2.22585 -3.732763,-3.78736 -0.8355,-2.51553 -0.007,-5.51842 1.970523,-7.13848 1.33125,-1.09087 2.38641,-1.46196 4.17272,-1.46757 3.60168,-0.0113 6.19345,2.5769 6.19345,6.1847 0,3.52785 -2.62716,6.25876 -6.22599,6.47198 -0.79586,0.0472 -1.73002,-0.0563 -2.37789,-0.26318 z"
     id="path4451" />
</svg>
